<svg width="299" height="295" viewBox="0 0 299 295" fill="none" xmlns="http://www.w3.org/2000/svg">
<path fill-rule="evenodd" clip-rule="evenodd" d="M4.84314 54.5927H149.242V272.257H125.883C126.767 265.531 123.406 258.806 121.374 252.084H4.84314V54.5927Z" fill="black"/>
<path d="M130.933 65.2188H15.2009V233.509H130.933V65.2188Z" fill="white"/>
<path fill-rule="evenodd" clip-rule="evenodd" d="M42.2486 23.3046C77.7314 21.0376 117.019 24.9589 145.907 47.7178L149.243 50.3466V242.262H126.975L124.43 239.796C114.29 229.979 100.264 212.533 84.6906 212.533H34.0552V23.8282L42.2488 23.3046H42.2486Z" fill="black"/>
<path fill-rule="evenodd" clip-rule="evenodd" d="M42.8079 32.0399C85.2443 29.3294 117.875 36.7757 140.49 54.5925V233.508H130.519C120.285 223.599 104.479 203.779 84.6909 203.779H42.8079V32.0399V32.0399Z" fill="white"/>
<path fill-rule="evenodd" clip-rule="evenodd" d="M293.643 54.5927H149.243V272.257H172.602C171.716 265.531 175.079 258.806 177.112 252.084H293.643V54.5927Z" fill="black"/>
<path d="M283.284 65.2188H167.552V233.509H283.284V65.2188Z" fill="white"/>
<path fill-rule="evenodd" clip-rule="evenodd" d="M256.234 23.3046C220.754 21.0376 181.464 24.9589 152.579 47.7178L149.242 50.3466V242.262H171.509L174.056 239.796C184.194 229.979 198.222 212.533 213.795 212.533H264.431V23.8282L256.234 23.3046Z" fill="black"/>
<path fill-rule="evenodd" clip-rule="evenodd" d="M255.678 32.0399C213.241 29.3294 180.61 36.7757 157.996 54.5925V233.508H167.967C178.199 223.599 194.004 203.779 213.795 203.779H255.678V32.0399V32.0399Z" fill="white"/>
</svg>
