<svg width="298" height="295" viewBox="0 0 298 295" fill="none" xmlns="http://www.w3.org/2000/svg">
<g clip-path="url(#clip0_24_101)">
<ellipse cx="149" cy="147.5" rx="149" ry="147.457" fill="#0076A9"/>
<path fill-rule="evenodd" clip-rule="evenodd" d="M47.2565 82.038H148.999V235.403H132.54C133.163 230.664 130.796 225.926 129.364 221.189H47.2565V82.038Z" fill="black"/>
<path d="M136.099 89.525H54.5547V208.101H136.099V89.525Z" fill="white"/>
<path fill-rule="evenodd" clip-rule="evenodd" d="M73.6122 59.9926C98.6133 58.3953 126.295 61.1582 146.649 77.194L149 79.0463V214.269H133.31L131.517 212.531C124.373 205.614 114.49 193.322 103.517 193.322H67.8392V60.3615L73.6124 59.9926H73.6122Z" fill="black"/>
<path fill-rule="evenodd" clip-rule="evenodd" d="M74.0063 66.1474C103.907 64.2376 126.898 69.4842 142.833 82.0378V208.101H135.807C128.596 201.119 117.46 187.154 103.517 187.154H74.0063V66.1474V66.1474Z" fill="white"/>
<path fill-rule="evenodd" clip-rule="evenodd" d="M250.743 82.038H149V235.403H165.459C164.834 230.664 167.203 225.926 168.636 221.189H250.743V82.038Z" fill="black"/>
<path d="M243.444 89.525H161.9V208.101H243.444V89.525Z" fill="white"/>
<path fill-rule="evenodd" clip-rule="evenodd" d="M224.386 59.9926C199.386 58.3953 171.703 61.1582 151.351 77.194L148.999 79.0463V214.269H164.689L166.483 212.531C173.626 205.614 183.51 193.322 194.483 193.322H230.161V60.3615L224.386 59.9926Z" fill="black"/>
<path fill-rule="evenodd" clip-rule="evenodd" d="M223.994 66.1474C194.092 64.2376 171.101 69.4842 155.167 82.0378V208.101H162.193C169.402 201.119 180.538 187.154 194.483 187.154H223.994V66.1474V66.1474Z" fill="white"/>
</g>
<defs>
<clipPath id="clip0_24_101">
<rect width="298" height="295" fill="white"/>
</clipPath>
</defs>
</svg>
