<svg width="298" height="314" viewBox="0 0 298 314" fill="none" xmlns="http://www.w3.org/2000/svg">
<path fill-rule="evenodd" clip-rule="evenodd" d="M5.50317 64.2929H148.878V280.413H125.684C126.562 273.735 123.226 267.058 121.208 260.383H5.50317V64.2929Z" fill="#000F15"/>
<path d="M130.699 74.8436H15.7876V241.94H130.699V74.8436Z" fill="white"/>
<path fill-rule="evenodd" clip-rule="evenodd" d="M42.6433 33.2268C77.8745 30.9759 116.884 34.8693 145.566 57.4669L148.878 60.077V250.631H126.769L124.242 248.182C114.174 238.435 100.247 221.113 84.7843 221.113H34.5081V33.7468L42.6435 33.2268H42.6433Z" fill="#000F15"/>
<path fill-rule="evenodd" clip-rule="evenodd" d="M43.1986 41.9002C85.3341 39.2089 117.733 46.6023 140.188 64.2928V241.94H130.287C120.126 232.1 104.433 212.422 84.7846 212.422H43.1986V41.9002V41.9002Z" fill="white"/>
<path fill-rule="evenodd" clip-rule="evenodd" d="M292.254 64.2929H148.878V280.413H172.072C171.192 273.735 174.531 267.058 176.55 260.383H292.254V64.2929Z" fill="#000F15"/>
<path d="M281.969 74.8436H167.058V241.94H281.969V74.8436Z" fill="white"/>
<path fill-rule="evenodd" clip-rule="evenodd" d="M255.111 33.2268C219.883 30.9759 180.871 34.8693 152.191 57.4669L148.878 60.077V250.631H170.987L173.515 248.182C183.582 238.435 197.51 221.113 212.973 221.113H263.249V33.7468L255.111 33.2268Z" fill="#000F15"/>
<path fill-rule="evenodd" clip-rule="evenodd" d="M254.559 41.9002C212.423 39.2089 180.024 46.6023 157.57 64.2928V241.94H167.47C177.629 232.1 193.322 212.422 212.973 212.422H254.559V41.9002V41.9002Z" fill="white"/>
</svg>
