<svg width="301" height="300" viewBox="0 0 301 300" fill="none" xmlns="http://www.w3.org/2000/svg">
<path fill-rule="evenodd" clip-rule="evenodd" d="M16.6689 63.1841H150.242V266.577H128.634C129.452 260.292 126.343 254.009 124.463 247.727H16.6689V63.1841Z" fill="black"/>
<path d="M133.305 73.1134H26.2502V230.37H133.305V73.1134Z" fill="white"/>
<path fill-rule="evenodd" clip-rule="evenodd" d="M51.2703 33.9474C84.093 31.829 120.435 35.4932 147.157 56.76L150.243 59.2164V238.549H129.645L127.291 236.245C117.911 227.071 104.936 210.769 90.5304 210.769H43.6912V34.4367L51.2705 33.9474H51.2703Z" fill="black"/>
<path fill-rule="evenodd" clip-rule="evenodd" d="M51.7874 42.1099C91.0423 39.5771 121.227 46.5351 142.146 63.1838V230.369H132.922C123.456 221.109 108.835 202.589 90.5304 202.589H51.7874V42.1099V42.1099Z" fill="white"/>
<path fill-rule="evenodd" clip-rule="evenodd" d="M283.817 63.1841H150.243V266.577H171.851C171.031 260.292 174.142 254.009 176.023 247.727H283.817V63.1841Z" fill="black"/>
<path d="M274.235 73.1134H167.179V230.37H274.235V73.1134Z" fill="white"/>
<path fill-rule="evenodd" clip-rule="evenodd" d="M249.213 33.9474C216.393 31.829 180.048 35.4932 153.329 56.76L150.242 59.2164V238.549H170.84L173.195 236.245C182.574 227.071 195.549 210.769 209.956 210.769H256.795V34.4367L249.213 33.9474Z" fill="black"/>
<path fill-rule="evenodd" clip-rule="evenodd" d="M248.699 42.1099C209.443 39.5771 179.259 46.5351 158.34 63.1838V230.369H167.564C177.028 221.109 191.648 202.589 209.956 202.589H248.699V42.1099V42.1099Z" fill="white"/>
</svg>
