<svg width="800" height="521" viewBox="0 0 800 521" fill="none" xmlns="http://www.w3.org/2000/svg">
<path fill-rule="evenodd" clip-rule="evenodd" d="M0 0.857178C266.64 0.857178 533.359 0.857178 800 0.857178C800 13.8562 800 502.158 800 515.157C798.021 514.906 796.81 513.647 794.5 514.157C792.427 514.615 790.102 517.493 786.5 516.157C785.137 515.651 785.555 514.615 783.5 514.157C778.611 520.578 765.713 519.6 757 517.657C751.679 516.47 749.204 520.352 745 519.157C742.856 518.548 742.23 515.823 740 516.657C737.152 517.393 737.046 519.011 733 519.157C732.62 518.688 728.857 515.288 728.5 515.157C725.916 514.209 721.938 516.145 720 514.657C719.235 514.07 718.018 511.478 717.5 510.657C714.162 512.653 704.635 515.366 698.5 513.657C696.221 513.022 694.973 509.641 691.5 510.657C691 511.157 690.5 511.657 690 512.157C686.334 512.157 682.666 512.157 679 512.157C676.646 512.846 672.109 514.569 670 515.157C667.5 514.824 665 514.49 662.5 514.157C658.461 515.497 658.715 519.038 651.5 519.157C649.303 516.148 647.427 517.731 643 516.657C642.762 516.599 642.018 515.573 641.5 515.657C640.23 515.863 639.467 517.761 637 517.157C634.544 516.556 632.979 513.723 631 513.157C628.542 512.454 625.047 514.327 622.5 512.657C621.217 511.815 619.95 509.309 618.5 508.657C616.834 508.49 615.166 508.324 613.5 508.157C612.834 507.49 612.166 506.824 611.5 506.157C609.392 505.583 609.076 507.305 608 507.657C605.5 507.657 603 507.657 600.5 507.657C599.287 508.029 598.176 509.595 596 509.157C593.523 508.659 592.648 506.347 591 505.657C588.5 505.824 586 505.99 583.5 506.157C582.847 505.996 580.955 504.761 580.5 504.657C578.004 504.087 574.029 506.111 572.5 506.657C570.167 506.657 567.833 506.657 565.5 506.657C562.116 507.658 557.419 507.743 554 508.657C551 508.824 548 508.99 545 509.157C542.924 509.967 539.666 512.085 537.5 512.657C532.913 513.868 523.442 508.134 520 508.657C511.449 509.957 504.805 514.349 497 515.657C492.428 516.423 488.295 512.948 483 514.657C480.205 515.559 479.311 517.074 475 517.157C474.918 517.047 460.672 508.208 460.5 508.157C457.924 507.39 450.85 509.29 447 508.657C445.256 508.37 445.834 506.626 443.5 507.157C443 507.657 442.5 508.157 442 508.657C438 508.657 434 508.657 430 508.657C429.5 509.324 429 509.99 428.5 510.657C425.857 512.279 421.627 511.411 419 510.657C416.334 510.657 413.666 510.657 411 510.657C408.152 509.755 397.328 505.945 395 509.657C393.825 511.184 394.081 513.075 393.5 514.157C392.91 514.558 392.659 514.544 391.5 514.657C389.3 512.535 383.601 516.445 381.5 515.657C380.029 515.105 379.953 513.766 377 513.657C377 513.99 377 514.324 377 514.657C377.376 515.193 377.301 515.13 377.5 516.157C376.476 516.513 375.163 516.654 373.5 516.657C372.927 515.929 372.499 515.557 372 514.657C368.337 517.548 355.6 522.035 348 519.657C346.379 519.15 346.316 517.003 343.5 517.657C343.167 517.99 342.833 518.324 342.5 518.657C338.334 518.49 334.166 518.324 330 518.157C328.495 518.766 324.433 521.632 321 520.657C320.5 520.157 320 519.657 319.5 519.157C317 518.99 314.5 518.824 312 518.657C311.5 518.157 311 517.657 310.5 517.157C307.814 516.111 305.318 517.141 303 516.157C301.358 515.46 300.379 513.678 298.5 513.157C294.334 512.99 290.166 512.824 286 512.657C285.049 512.374 284.137 510.922 283.5 510.657C280.667 510.657 277.833 510.657 275 510.657C273.456 512.62 268.424 515.886 266 516.657C261 516.49 256 516.324 251 516.157C250.667 516.657 250.333 517.157 250 517.657C244.146 520.307 235.539 514.363 232 512.657C229.459 511.432 228.34 514.203 226 513.657C222.661 512.879 218.59 509.989 214.5 509.657C210.859 514.735 205.933 509.904 201 509.157C196.103 508.415 192.704 513.927 187 511.657C184.368 510.609 180.596 507.247 175.5 508.657C172.346 509.53 169.228 512.773 166 513.657C163.085 514.455 160.123 512.643 158 512.157C152.353 510.864 149.567 514.804 145 513.657C142.958 513.144 141.72 511.339 140 510.657C137.414 509.632 135.393 509.934 133 508.657C132.333 507.99 131.667 507.324 131 506.657C127 506.657 123 506.657 119 506.657C118.212 506.391 117.289 504.922 116.5 504.657C114.212 503.888 100.708 503.939 99 504.657C97.717 505.196 95.279 507.176 93.5 507.657C90.894 508.362 89.987 506.817 87.5 506.657C86.515 508.243 85.223 509.341 84 510.657C78.458 510.71 73.294 510.039 69 509.657C67.945 511.375 67.311 512.063 64.5 512.157C63.487 511.097 63.029 510.832 61 510.657C60.014 512.081 59.494 512.164 57 512.157C55.007 510.19 53.357 511.647 50 510.657C48.147 510.111 42.788 505.661 40 506.657C39.346 506.89 37.982 508.518 37 508.657C34.471 509.015 33.179 505.09 30 506.657C26.112 508.573 23.286 512.31 18 512.657C11.278 506.677 5.213 513.699 0 514.657C0 501.825 0 13.6892 0 0.857178Z" fill="white"/>
</svg>
