<svg width="800" height="878" viewBox="0 0 800 878" fill="none" xmlns="http://www.w3.org/2000/svg">
<path fill-rule="evenodd" clip-rule="evenodd" d="M0 0.00805664C266.64 0.00805664 533.359 0.00805664 800 0.00805664C800 0.00805664 800 859.3 800 872.299C798.021 872.048 796.81 870.789 794.5 871.299C792.427 871.757 790.102 874.635 786.5 873.299C785.137 872.793 785.555 871.757 783.5 871.299C778.611 877.72 765.713 876.742 757 874.799C751.679 873.612 749.204 877.494 745 876.299C742.856 875.69 742.23 872.965 740 873.799C737.152 874.535 737.046 876.153 733 876.299C732.62 875.83 728.857 872.43 728.5 872.299C725.916 871.351 721.938 873.287 720 871.799C719.235 871.212 718.018 868.62 717.5 867.799C714.162 869.795 704.635 872.508 698.5 870.799C696.221 870.164 694.973 866.783 691.5 867.799C691 868.299 690.5 868.799 690 869.299C686.334 869.299 682.666 869.299 679 869.299C676.646 869.988 672.109 871.711 670 872.299C667.5 871.966 665 871.632 662.5 871.299C658.461 872.639 658.715 876.18 651.5 876.299C649.303 873.29 647.427 874.873 643 873.799C642.762 873.741 642.018 872.715 641.5 872.799C640.23 873.005 639.467 874.903 637 874.299C634.544 873.698 632.979 870.865 631 870.299C628.542 869.596 625.047 871.469 622.5 869.799C621.217 868.957 619.95 866.451 618.5 865.799C616.834 865.632 615.166 865.466 613.5 865.299C612.834 864.632 612.166 863.966 611.5 863.299C609.392 862.725 609.076 864.447 608 864.799C605.5 864.799 603 864.799 600.5 864.799C599.287 865.171 598.176 866.737 596 866.299C593.523 865.801 592.648 863.489 591 862.799C588.5 862.966 586 863.132 583.5 863.299C582.847 863.138 580.955 861.903 580.5 861.799C578.004 861.229 574.029 863.253 572.5 863.799C570.167 863.799 567.833 863.799 565.5 863.799C562.116 864.8 557.419 864.885 554 865.799C551 865.966 548 866.132 545 866.299C542.924 867.109 539.666 869.227 537.5 869.799C532.913 871.01 523.442 865.276 520 865.799C511.449 867.099 504.805 871.491 497 872.799C492.428 873.565 488.295 870.09 483 871.799C480.205 872.701 479.311 874.216 475 874.299C474.918 874.189 460.672 865.35 460.5 865.299C457.924 864.532 450.85 866.432 447 865.799C445.256 865.512 445.834 863.768 443.5 864.299C443 864.799 442.5 865.299 442 865.799C438 865.799 434 865.799 430 865.799C429.5 866.466 429 867.132 428.5 867.799C425.857 869.421 421.627 868.553 419 867.799C416.334 867.799 413.666 867.799 411 867.799C408.152 866.897 397.328 863.087 395 866.799C393.825 868.326 394.081 870.217 393.5 871.299C392.91 871.7 392.659 871.686 391.5 871.799C389.3 869.677 383.601 873.587 381.5 872.799C380.029 872.247 379.953 870.908 377 870.799C377 871.132 377 871.466 377 871.799C377.376 872.335 377.301 872.272 377.5 873.299C376.476 873.655 375.163 873.796 373.5 873.799C372.927 873.071 372.499 872.699 372 871.799C368.337 874.69 355.6 879.177 348 876.799C346.379 876.292 346.316 874.145 343.5 874.799C343.167 875.132 342.833 875.466 342.5 875.799C338.334 875.632 334.166 875.466 330 875.299C328.495 875.908 324.433 878.774 321 877.799C320.5 877.299 320 876.799 319.5 876.299C317 876.132 314.5 875.966 312 875.799C311.5 875.299 311 874.799 310.5 874.299C307.814 873.253 305.318 874.283 303 873.299C301.358 872.602 300.379 870.82 298.5 870.299C294.334 870.132 290.166 869.966 286 869.799C285.049 869.516 284.137 868.064 283.5 867.799C280.667 867.799 277.833 867.799 275 867.799C273.456 869.762 268.424 873.028 266 873.799C261 873.632 256 873.466 251 873.299C250.667 873.799 250.333 874.299 250 874.799C244.146 877.449 235.539 871.505 232 869.799C229.459 868.574 228.34 871.345 226 870.799C222.661 870.021 218.59 867.131 214.5 866.799C210.859 871.877 205.933 867.046 201 866.299C196.103 865.557 192.704 871.069 187 868.799C184.368 867.751 180.596 864.389 175.5 865.799C172.346 866.672 169.228 869.915 166 870.799C163.085 871.597 160.123 869.785 158 869.299C152.353 868.006 149.567 871.946 145 870.799C142.958 870.286 141.72 868.481 140 867.799C137.414 866.774 135.393 867.076 133 865.799C132.333 865.132 131.667 864.466 131 863.799C127 863.799 123 863.799 119 863.799C118.212 863.533 117.289 862.064 116.5 861.799C114.212 861.03 100.708 861.081 99 861.799C97.717 862.338 95.279 864.318 93.5 864.799C90.894 865.504 89.987 863.959 87.5 863.799C86.515 865.385 85.223 866.483 84 867.799C78.458 867.852 73.294 867.181 69 866.799C67.945 868.517 67.311 869.205 64.5 869.299C63.487 868.239 63.029 867.974 61 867.799C60.014 869.223 59.494 869.306 57 869.299C55.007 867.332 53.357 868.789 50 867.799C48.147 867.253 42.788 862.803 40 863.799C39.346 864.032 37.982 865.66 37 865.799C34.471 866.157 33.179 862.232 30 863.799C26.112 865.715 23.286 869.452 18 869.799C11.278 863.819 5.213 870.841 0 871.799C0 858.967 0 0.00805664 0 0.00805664Z" fill="white"/>
</svg>
